<?xml version="1.0" encoding="UTF-8" standalone="no"?>
<!-- Created with Inkscape (http://www.inkscape.org/) -->

<svg
   xmlns:dc="http://purl.org/dc/elements/1.1/"
   xmlns:cc="http://creativecommons.org/ns#"
   xmlns:rdf="http://www.w3.org/1999/02/22-rdf-syntax-ns#"
   xmlns:svg="http://www.w3.org/2000/svg"
   xmlns="http://www.w3.org/2000/svg"
   xmlns:sodipodi="http://sodipodi.sourceforge.net/DTD/sodipodi-0.dtd"
   xmlns:inkscape="http://www.inkscape.org/namespaces/inkscape"
   version="1.1"
   id="svg904"
   width="125"
   height="135"
   viewBox="0 0 125 135"
   sodipodi:docname="loadsharers-logo.svg"
   inkscape:version="0.92.2 (5c3e80d, 2017-08-06)">
  <metadata
     id="metadata910">
    <rdf:RDF>
      <cc:Work
         rdf:about="">
        <dc:format>image/svg+xml</dc:format>
        <dc:type
           rdf:resource="http://purl.org/dc/dcmitype/StillImage" />
        <dc:title></dc:title>
      </cc:Work>
    </rdf:RDF>
  </metadata>
  <defs
     id="defs908" />
  <sodipodi:namedview
     pagecolor="#ffffff"
     bordercolor="#666666"
     borderopacity="1"
     objecttolerance="10"
     gridtolerance="10"
     guidetolerance="10"
     inkscape:pageopacity="0"
     inkscape:pageshadow="2"
     inkscape:window-width="1920"
     inkscape:window-height="1011"
     id="namedview906"
     showgrid="false"
     inkscape:zoom="5.2984618"
     inkscape:cx="-4.62532"
     inkscape:cy="74.101096"
     inkscape:window-x="1912"
     inkscape:window-y="-8"
     inkscape:window-maximized="1"
     inkscape:current-layer="svg904" />
  <path
     style="fill:#000000;stroke-width:1.33333337"
     d="m 717.65967,93.6106 c 0.91667,-0.3699 2.41667,-0.3699 3.33333,0 0.91667,0.3698 0.16667,0.6725 -1.66666,0.6725 -1.83334,0 -2.58334,-0.3027 -1.66667,-0.6725 z"
     id="path5450"
     inkscape:connector-curvature="0" />
  <path
     style="fill:#000000;stroke-width:1.33333337"
     d="m 736.40967,93.5826 c 0.9625,-0.3851 2.1125,-0.3378 2.55556,0.1052 0.44305,0.4431 -0.34445,0.7582 -1.75,0.7003 -1.55326,-0.064 -1.8692,-0.3799 -0.80556,-0.8055 z"
     id="path5448"
     inkscape:connector-curvature="0" />
  <g
     id="g5857"
     transform="matrix(0.15242067,0,0,0.15242067,-69.597909,-30.304219)">
    <path
       inkscape:connector-curvature="0"
       d="m 838.50935,289.99688 c -21.1388,-21.17939 -21.1653,-20.13947 0.5133,-20.17055 16.4094,-0.0235 31.9925,1.90066 48.6317,6.00494 14.9629,3.6908 33.7392,10.5155 31.883,11.58866 -0.669,0.38676 -4.5163,1.47508 -8.5497,2.41847 -8.6518,2.02367 -32.0606,10.24891 -43.1659,15.1674 -4.3079,1.90795 -8.5159,3.469 -9.3512,3.469 -0.8352,0 -9.8178,-8.31507 -19.9612,-18.47792 z m 59.9232,59.92308 -15.7566,-15.79777 10.4892,-3.99122 c 25.3301,-9.63826 65.9965,-19.18364 70.6452,-16.58209 1.2332,0.69011 -5.7704,8.5174 -23.1947,25.92257 -13.7287,13.71368 -25.291,25.22924 -25.6939,25.59014 -0.4029,0.36089 -7.8231,-6.45283 -16.4892,-15.14163 z m -156.18034,-8.21632 -26.5979,-26.65857 3.3333,-2.71648 c 13.0001,-10.59431 39.79964,-25.62984 55.70774,-31.25407 l 7.0409,-2.48931 23.1987,23.17028 23.1987,23.17027 -9.4484,5.8253 c -9.53,5.87564 -36.1816,25.55374 -42.3796,31.29076 -7.6497,7.08074 -5.2919,8.4889 -34.05344,-20.33818 z m 210.06454,62.10019 -15.2941,-15.33763 25.229,-25.25535 c 13.876,-13.89044 25.7182,-24.95309 26.3159,-24.58366 1.8597,1.14934 1.2133,7.97388 -2.2925,24.20358 -4.9475,22.90364 -15.4888,56.3107 -17.7686,56.3107 -0.4925,0 -7.778,-6.90194 -16.1897,-15.33764 z m -136.428,11.57228 -23.7379,-23.76536 7.0851,-5.97342 c 14.0359,-11.83364 33.1061,-25.24784 47.3656,-33.31745 l 5.6138,-3.17695 18.5,17.99927 c 10.175,9.8996 18.9252,18.86709 19.4448,19.92777 0.6636,1.35447 -6.5101,9.39111 -24.1007,27 -13.775,13.78932 -25.3576,25.07151 -25.7392,25.07151 -0.3815,0 -11.3757,-10.69442 -24.4315,-23.76537 z m -136.95774,12.37529 -23.0204,-23.04863 3.0777,-8.44732 c 5.1376,-14.10142 16.8198,-35.81872 25.5243,-47.44994 l 8.234,-11.00263 26.4539,26.28316 c 14.5496,14.45573 26.4529,26.60691 26.4519,27.00263 0,0.3957 -4.5312,6.11946 -10.067,12.71946 -5.5358,6.60001 -15.3681,19.87318 -21.8496,29.49595 l -11.7844,17.49595 z m 333.59299,36.26879 -19.13045,-19.1734 2.1621,-4.18126 c 2.9522,-5.70884 9.53085,-23.5627 14.31785,-38.8574 2.1804,-6.96666 4.4373,-14.16665 5.0153,-16 1.0239,-3.24713 1.1096,-3.19542 3.3161,2 10.3064,24.26745 16.7684,62.19758 14.4855,85.02607 l -1.036,10.3594 z m -125.88325,22.1081 -23.6524,-23.67984 25.6663,-25.62056 25.6664,-25.62057 19.0151,18.96708 c 10.4583,10.43188 19.3731,19.38188 19.8107,19.88888 2.2198,2.57209 -37.9291,59.74485 -41.9551,59.74485 -0.4942,0 -11.5421,-10.65593 -24.551,-23.67984 z m -140.91794,8.37691 -19.2648,-19.29512 3.1647,-5.70099 c 7.5573,-13.61372 24.09604,-36.95312 35.21904,-49.70096 l 4.6535,-5.33333 24.0803,23.98681 24.0802,23.9868 -25.6545,25.67987 c -14.11,14.12392 -25.9604,25.67812 -26.3341,25.67597 -0.3737,-0.003 -9.3486,-8.68671 -19.94434,-19.29905 z m -87.0878,32.96961 c -2.703,-7.88333 -5.8165,-18.3647 -6.9189,-23.29192 -3.105,-13.87874 -4.9931,-37.82674 -4.002,-50.75902 l 0.898,-11.7176 19.2907,19.34498 c 10.777,10.80732 18.8983,19.98007 18.4014,20.78396 -2.8573,4.62319 -12.776,30.9166 -16.7115,44.30044 -2.5328,8.61347 -4.9286,15.66347 -5.3241,15.66667 -0.3954,0.003 -2.9305,-6.44419 -5.6336,-14.32751 z m 187.03204,23.93913 c -10.2016,-18.12486 -9.6277,-17.60581 -19.4664,-17.60581 -7.4127,0 -10.107,0.75492 -19.4374,5.44619 l -10.8319,5.44618 -3.7988,-3.79874 -3.7987,-3.79874 25.9977,-25.97208 25.9977,-25.97208 24.159,24.15899 24.159,24.15899 -14.7428,11.83232 c -8.1085,6.50777 -16.4781,12.85493 -18.5991,14.10478 l -3.8564,2.27247 z m 115.4332,9.17346 -26.537,-26.5618 11.4138,-14.06082 c 6.2776,-7.73344 16.091,-20.99536 21.8076,-29.47093 l 10.3937,-15.41012 22.17935,21.69553 c 12.1987,11.93255 22.5682,22.46172 23.0432,23.39815 1.0136,1.99751 -4.8753,17.33008 -12.2806,31.97443 -4.5536,9.00472 -13.32705,22.32262 -21.07625,31.99349 l -2.407,3.00387 z m -270.44264,24.8972 c -0.7031,-2.10916 3.2061,-23.72983 6.8403,-37.8316 2.7636,-10.7237 11.4399,-36.75905 13.4656,-40.4066 0.7864,-1.41608 5.0369,2.04893 16.8163,13.70884 l 15.7639,15.60392 -25.2649,25.29116 c -13.8956,13.91013 -25.6708,25.29116 -26.1669,25.29116 -0.4961,0 -1.1506,-0.7456 -1.4543,-1.65688 z m 47.8659,17.64945 c -5.7553,-2.09538 -10.685,-4.03057 -10.9548,-4.30042 -0.2699,-0.26987 6.6573,-7.62007 15.3938,-16.33379 l 15.88454,-15.84312 9.1342,6.07383 9.1342,6.07382 1.3078,9.4623 c 1.3,9.40564 1.2877,9.47009 -2.0638,10.7659 -2.9791,1.15178 -20.0007,6.13623 -25.3718,7.42962 -1.1,0.26489 -6.70884,-1.23278 -12.46414,-3.32814 z m 189.99224,28.90878 c -0.9368,-1.12879 -4.2499,-1.37326 -11.0984,-0.81892 -11.0051,0.89074 -8.0926,2.3359 -35.0963,-17.41471 -6.6,-4.82727 -14.5785,-10.63627 -17.7299,-12.90889 l -5.7298,-4.13206 13.0632,-9.01493 c 7.1847,-4.95821 19.1153,-13.97761 26.5125,-20.04311 l 13.4493,-11.02816 26.5507,26.63822 26.5506,26.63822 -4,3.30282 c -4.693,3.87504 -19.8856,14.07146 -26.511,17.79272 -3.5488,1.99325 -4.9362,2.2234 -5.9609,0.9888 z m 77.45425,291.7299 c -3.8403,-2.5862 -6.98235,-4.948 -6.98235,-5.2486 0,-0.3006 3.75005,-0.2776 8.33345,0.051 7.6993,0.5522 73.0792,4.0031 138.3333,7.3015 15.0333,0.7599 28.2333,1.5857 29.3333,1.8351 1.1,0.2495 -34.908,0.5231 -80.0177,0.6082 l -82.0179,0.15471 -6.9821,-4.7021 z m -395.64899,4.6544 c 28.6,-1.3061 64.9,-3.0284 80.6666,-3.8271 15.7667,-0.7988 37.3667,-1.8298 48,-2.2911 l 19.33344,-0.8388 -4.5949,4.8357 -4.59494,4.8356 -95.4051,-0.1698 -95.4051,-0.1697 z m 154.00004,3.3747 c 0,-0.4272 1.5,-2.3944 3.3333,-4.3716 3.6614,-3.9487 4.0585,-7.5592 2.0943,-19.0439 -0.6815,-3.9847 -1.9966,-13.5367 -2.9225,-21.2268 l -1.6834,-13.9819 -8.91,-9.3514 c -4.9005,-5.1433 -19.77914,-21.0514 -33.06344,-35.3514 l -24.1535,-26 -0.014,-6.85747 -0.014,-6.85745 28.9225,-15.64954 28.92254,-15.64953 18.0394,2.24664 c 9.9216,1.23565 18.2475,2.45483 18.502,2.70928 0.2544,0.25445 -3.7784,13.73613 -8.9619,29.95931 -5.1834,16.22316 -9.4245,29.79756 -9.4245,30.16526 0,0.3677 -1.7627,-0.2429 -3.9172,-1.3571 -2.434,-1.2586 -5.5384,-5.0672 -8.1985,-10.058 -2.3546,-4.4178 -4.5029,-7.8105 -4.774,-7.5394 -0.2711,0.271 1.3182,4.7489 3.5317,9.9507 2.2136,5.2017 4.0247,10.1362 4.0247,10.9655 0,0.8292 -2.7351,5.0621 -6.0779,9.4064 -5.6917,7.3967 -6.9218,10.4222 -2.3983,5.8987 1.1,-1.1 2.5529,-2 3.2286,-2 0.6757,0 4.4271,4.35 8.3365,9.6667 6.0244,8.1929 7.5876,11.5978 10.2537,22.3333 1.9641,7.9089 5.5404,17.1863 9.5212,24.6993 l 6.3755,12.0326 -3.7737,12.6341 -3.7737,12.634 -11.5126,0.3852 c -6.332,0.2119 -11.5126,0.036 -11.5126,-0.3915 z m 245.50345,-310.9937 c 1.6584,-2.11474 1.6114,-2.1619 -0.5034,-0.50341 -1.2834,1.00647 -2.3334,2.05647 -2.3334,2.33333 0,1.09739 1.095,0.39108 2.8368,-1.82992 z m 1.8226,8.99183 c -1.3315,-1.47116 -2.685,-2.41064 -3.0079,-2.08772 -0.7801,0.78011 2.6849,4.64724 4.2219,4.71184 0.6636,0.0279 0.1173,-1.15296 -1.214,-2.62412 z m 4.0073,5.34151 c 0.4532,-0.73334 0.1887,-1.33334 -0.588,-1.33334 -0.7765,0 -1.412,0.6 -1.412,1.33334 0,0.73333 0.2645,1.33333 0.588,1.33333 0.3233,0 0.9588,-0.6 1.412,-1.33333 z m -19.99675,2.89224 c -0.8274,-0.82754 -6.0033,1.24637 -6.0033,2.40549 0,0.61492 1.4563,0.43079 3.2363,-0.4092 1.7798,-0.83999 3.025,-1.73832 2.767,-1.99629 z m 7.68195,5.10149 c -1.2152,-1.41931 -2.4331,-2.35695 -2.7064,-2.08365 -0.88005,0.88001 2.8519,5.93994 3.9021,5.29082 0.5576,-0.34464 0.02,-1.78786 -1.1957,-3.20717 z m -19.97935,11.95339 c -0.3912,-1.49576 -1.0091,-2.42164 -1.3732,-2.05751 -0.7214,0.72132 0.5526,4.77705 1.5006,4.77705 0.3211,0 0.2636,-1.2238 -0.128,-2.71954 z m -5.7059,9.38621 c 0,-0.73333 -0.6355,-1.33333 -1.412,-1.33333 -0.7767,0 -1.0412,0.6 -0.588,1.33333 0.4532,0.73333 1.0887,1.33333 1.412,1.33333 0.3235,0 0.588,-0.6 0.588,-1.33333 z m -9.3333,0 c 0,-0.73333 -0.6355,-1.33333 -1.412,-1.33333 -0.7767,0 -1.0412,0.6 -0.588,1.33333 0.4532,0.73333 1.0886,1.33333 1.412,1.33333 0.3234,0 0.588,-0.6 0.588,-1.33333 z m -2.057,4.09213 c 0.4219,-0.68266 0.064,-1.67537 -0.794,-2.20601 -0.9304,-0.57505 -1.2052,-0.38896 -0.6801,0.46065 0.4845,0.78402 0.1267,1.72935 -0.794,2.10075 -1.1988,0.48333 -1.2236,0.70521 -0.087,0.78055 0.8734,0.0579 1.9332,-0.45328 2.3551,-1.13594 z m -13.4869,11.30911 c 0.4955,-1.29136 0.1013,-1.68623 -1.1907,-1.19068 -2.109,0.80928 -2.6582,3.12277 -0.7414,3.12277 0.6549,0 1.5242,-0.86944 1.9321,-1.93209 z m -95.9897,33.26544 c 0.4533,-5.86667 2.1192,-22.83128 3.7019,-37.69916 1.5828,-14.86787 2.6424,-27.24333 2.3547,-27.50103 -0.2877,-0.2577 -1.7962,-0.85913 -3.3523,-1.3365 -2.8105,-0.86222 -2.835,-0.66306 -3.7016,30.16769 -0.4799,17.06961 -1.1862,35.53565 -1.5696,41.03565 -0.4408,6.32211 -0.2485,9.26443 0.5227,8 0.671,-1.1 1.5909,-6.79999 2.0442,-12.66665 z m -53.4615,197.97795 c -12.8758,-26.5238 -14.0122,-29.559 -19.755,-52.7672 l -6.0933,-24.6246 6.749,-21.6264 c 15.3065,-49.04822 15.3855,-49.24814 21.1754,-53.62643 2.9093,-2.2 6.4062,-4.74157 7.771,-5.64793 2.0489,-1.36078 1.0292,-1.50503 -5.852,-0.82779 l -8.3334,0.82016 0.015,-3.83888 c 0.01,-2.1114 0.3918,-6.12095 0.8527,-8.91013 l 0.838,-5.07124 3.9868,3.7379 c 3.9437,3.69748 3.9685,3.70186 2.3011,0.40458 -0.9271,-1.83334 -9.7049,-17.5608 -19.5062,-34.94991 -9.8012,-17.38912 -17.8204,-31.87168 -17.8204,-32.18347 0,-0.31178 4.8232,-2.51112 10.7182,-4.88741 5.8951,-2.37629 10.5304,-4.50843 10.3007,-4.73808 -0.2296,-0.22965 -10.8701,2.82332 -23.6454,6.78439 -12.7753,3.96105 -23.86064,6.72394 -24.63404,6.13973 -0.7734,-0.5842 -9.8062,-7.59645 -20.0728,-15.58276 -15.7029,-12.21507 -19.7721,-14.74215 -25.6286,-15.91609 -5.5899,-1.1205 -9.4447,-3.36022 -19.5592,-11.3643 l -12.5971,-9.96877 -13.6885,-29.33333 c -7.5287,-16.13334 -16.5628,-35.49923 -20.0759,-43.03531 l -6.3873,-13.70197 2.8631,-14.9647 2.863,-14.96469 2.366,9.33333 c 1.3012,5.13334 2.3986,9.7183 2.4385,10.18879 0.04,0.47051 1.4861,1.21021 3.2136,1.6438 2.7434,0.68853 3.2498,1.82888 4,9.0068 0.4725,4.52015 0.8565,10.08044 0.8533,12.3562 0,2.79551 2.3157,7.59791 7.1505,14.80441 3.9359,5.86667 10.2986,15.62032 14.1393,21.6748 4.3692,6.88756 8.0561,11.25138 9.8495,11.65798 1.5766,0.35741 8.5664,1.85766 15.5331,3.33389 6.9667,1.47623 14.0508,3.00013 15.7424,3.38644 3.0868,0.70491 3.1409,1.52236 0.5552,8.39335 -0.3989,1.06008 2.543,0.15801 7.2752,-2.23082 l 7.945,-4.0106 14.9563,5.46907 c 13.70904,5.01292 15.19524,5.89399 17.82004,10.56413 1.575,2.80231 3.5352,5.0951 4.3561,5.0951 0.8209,0 7.7283,-2.1 15.3498,-4.66667 15.8227,-5.32856 16.9102,-5.46291 20.1903,-2.49445 2.2406,2.02772 3.0673,1.79056 12.4284,-3.56546 10.3163,-5.9025 12.9784,-8.81418 3.8438,-4.20418 -9.3413,4.71434 -10.9757,4.84126 -12.4489,0.96662 -1.1119,-2.92454 -1.7332,-3.25629 -3.9133,-2.08952 -4.4149,2.36278 -4.7804,1.67764 -4.3183,-8.09466 0.3037,-6.42243 0.8862,-9.05016 1.8029,-8.1335 0.9166,0.91668 3.464,0.47736 7.8846,-1.35977 7.0767,-2.94092 7.6444,-3.77411 4.4042,-6.46325 -1.7762,-1.47408 -3.178,-1.39118 -8.5123,0.50341 -3.5123,1.24745 -6.6965,2.26809 -7.0761,2.26809 -0.3796,0 -1.1118,-3.63301 -1.6272,-8.07334 -0.8697,-7.49412 -1.3096,-8.31996 -6.1309,-11.51052 -2.8566,-1.89044 -5.1881,-3.80743 -5.1811,-4.25999 0.01,-0.45255 9.6074,-5.77281 21.334,-11.82281 18.2125,-9.39611 22.2773,-11 27.8782,-11 h 6.5568 l 8.1091,14.13254 8.1091,14.13256 v 11.29063 c 0,12.32977 0.4444,11.83943 -7.8854,8.70137 -4.6483,-1.75116 1.7025,3.25642 30.9751,24.42351 l 31.3271,22.65272 -4.2084,1.59143 c -3.5601,1.34629 -2.1546,1.4833 9.125,0.88948 7.3333,-0.38607 14.0678,-0.92743 14.9655,-1.20302 0.8977,-0.2756 3.7994,3.37414 6.4481,8.11051 2.6487,4.73639 5.0336,8.6116 5.2997,8.6116 0.266,0 1.5151,-3.27188 2.7756,-7.27084 2.2196,-7.04097 2.4852,-7.31264 8.4015,-8.59271 3.3602,-0.72701 9.8469,-2.19896 14.4146,-3.27097 l 8.3051,-1.94913 6.1197,4.67266 c 6.5382,4.9923 8.4527,5.11194 5.9147,0.36963 -1.8564,-3.46877 -2.8736,-2.36528 15.3555,-16.65885 7.33335,-5.75014 14.42005,-11.37106 15.74805,-12.49094 2.0394,-1.71962 2.5928,-1.74808 3.5601,-0.18297 0.6299,1.01925 2.3655,1.94307 3.8568,2.05293 1.4912,0.10987 2.3785,-0.33882 1.9717,-0.99709 -0.4069,-0.65827 -1.5293,-0.89383 -2.4945,-0.52348 -2.8608,1.09781 -3.3477,-2.74549 -0.7693,-6.07315 1.3146,-1.6968 4.2446,-6.38509 6.5109,-10.41842 2.2664,-4.03334 4.7856,-7.17384 5.5984,-6.97891 0.8128,0.19495 1.3295,-0.40505 1.1481,-1.33333 -0.1814,-0.92827 0.995,-4.22339 2.6142,-7.32248 2.8862,-5.52446 2.9046,-5.8767 0.9384,-18 -2.5602,-15.78592 -2.5327,-16.68832 0.5392,-17.66327 1.9544,-0.62033 2.9452,-2.99283 4.2134,-10.08985 0.9122,-5.10336 2.0122,-9.27556 2.4448,-9.27156 0.4326,0.004 2.3159,6.454 4.1854,14.33333 l 3.3989,14.32607 -11.2179,33.78098 c -8.0693,24.29911 -11.6244,33.37466 -12.6657,32.33334 -1.8425,-1.84262 -3.5809,-1.85991 -3.5809,-0.0356 0,0.77661 0.5824,1.05206 1.2942,0.61213 1.7534,-1.08361 3.2302,5.27564 1.8131,7.80763 -1.0879,1.94389 -15.1961,18.08153 -21.4519,24.53753 -1.6561,1.70917 -3.53845,2.78173 -4.18285,2.38348 -0.6444,-0.39825 -1.0893,0.31944 -0.9888,1.59488 0.1416,1.7962 -0.8692,2.31899 -4.4838,2.31899 -4.4228,0 -8.6703,2.72029 -26.6667,17.07818 -7.6571,6.10898 -9.7677,7.47738 -10.6717,6.91864 -0.5639,-0.34842 -1.3372,0.55975 -1.7186,2.01818 -0.9256,3.5395 -3.4097,3.36296 -4.9014,-0.34834 l -1.2059,-3 -0.084,3 c -0.047,1.65 0.5889,3 1.412,3 1.0341,0 0.9836,0.61819 -0.1632,2 -1.2021,1.44855 -4.3844,2 -11.5411,2 -9.4273,0 -10.0781,0.20235 -14.17,4.4062 -13.3819,13.74786 -53.1589,55.63495 -56.6405,59.64512 -4.5512,5.24212 -4.6039,4.31306 1.5462,27.21162 l 2.1298,7.9296 -8.3289,13.9076 c -7.6113,12.7095 -9.1329,14.4263 -17.6622,19.9287 -5.1333,3.3116 -9.9333,6.5726 -10.6666,7.2467 -1.5725,1.4454 4.3467,-0.6855 9.9428,-3.5793 7.2577,-3.7531 7.5724,-3.3025 8.8774,12.7105 l 1.2011,14.74 -9.4846,26.26 c -5.2171,14.4429 -9.9214,27.7599 -10.4545,29.5932 l -0.9693,3.3334 3.1099,-3.6677 c 2.7221,-3.2103 6.0045,-4.3327 26.3187,-9 12.7647,-2.9328 23.6122,-5.3323 24.1054,-5.3323 0.4932,0 2.3467,3.15 4.119,7 1.7723,3.85 4.6207,9.4 6.3299,12.3333 l 3.1075,5.3333 -0.829,-5 -0.829,-5 h 17.6812 17.6813 l 6.2772,-6.1827 6.2771,-6.1828 26.0217,14.5161 26.0216,14.5161 -35.5862,0.6667 c -33.5333,0.6282 -35.8557,0.8331 -40.2531,3.5523 -4.2888,2.652 -7.5273,3.0038 -40,4.3457 -19.4333,0.803 -41.9333,1.7816 -50,2.1747 l -14.6667,0.7146 z"
       style="fill:#000000;stroke-width:1.33333337"
       id="path5146" />
    <g
       id="text5669"
       style="font-style:normal;font-variant:normal;font-weight:bold;font-stretch:normal;font-size:89.93695831px;line-height:1.25;font-family:'Linux Biolinum G';-inkscape-font-specification:'Linux Biolinum G, Bold';font-variant-ligatures:normal;font-variant-caps:normal;font-variant-numeric:normal;font-feature-settings:normal;text-align:end;letter-spacing:0px;word-spacing:0px;writing-mode:lr-tb;text-anchor:end;fill:#000000;fill-opacity:1;stroke:none;stroke-width:2.24844527"
       aria-label="LOADSHARERS">
      <path
         id="path5800"
         style="font-style:normal;font-variant:normal;font-weight:bold;font-stretch:normal;font-size:89.93695831px;font-family:'Linux Biolinum G';-inkscape-font-specification:'Linux Biolinum G, Bold';font-variant-ligatures:normal;font-variant-caps:normal;font-variant-numeric:normal;font-feature-settings:normal;text-align:end;writing-mode:lr-tb;text-anchor:end;stroke-width:2.24844527"
         d="m 572.77359,993.75927 q 0,9.13423 0.70263,11.59343 5.35758,0 11.7691,-0.4831 6.45543,-0.483 10.18817,-1.01 l 3.77665,-0.483 0.17566,0.3513 q -0.17566,1.4052 -0.17566,5.138 0,1.2296 0.17566,3.7766 l -0.17566,0.2635 q -2.19573,-0.2635 -5.40149,-0.2635 H 566.4499 l -7.42156,0.2635 -0.13174,-0.2635 q 0.9222,-6.4115 0.9222,-18.00494 v -22.00118 q 0,-10.62732 -1.01003,-18.00496 l 0.21957,-0.26348 q 3.99622,0.26348 7.07024,0.26348 l 7.46547,-0.26348 0.0878,0.26348 q -0.87829,5.97238 -0.87829,18.00496 z"
         inkscape:connector-curvature="0" />
      <path
         id="path5802"
         style="font-style:normal;font-variant:normal;font-weight:bold;font-stretch:normal;font-size:89.93695831px;font-family:'Linux Biolinum G';-inkscape-font-specification:'Linux Biolinum G, Bold';font-variant-ligatures:normal;font-variant-caps:normal;font-variant-numeric:normal;font-feature-settings:normal;text-align:end;writing-mode:lr-tb;text-anchor:end;stroke-width:2.24844527"
         d="m 631.15531,958.23241 q -15.37009,0 -15.37009,24.98737 0,12.55956 5.00626,19.05892 5.00626,6.4993 13.43785,6.4993 7.64113,0 11.37386,-5.9284 3.73274,-5.9724 3.73274,-18.09281 0,-14.00873 -4.34754,-20.2446 -4.30363,-6.27978 -13.83308,-6.27978 z m 32.67241,24.81171 q 0,6.71893 -2.23964,12.3839 -2.19573,5.62108 -6.23586,9.61728 -4.04014,3.9962 -9.92469,6.2359 -5.88454,2.2396 -12.9987,2.2396 -8.82682,0 -15.94097,-3.6449 -7.11416,-3.6449 -11.15429,-10.23208 -4.04014,-6.58718 -4.04014,-14.88703 0,-8.73899 3.90839,-15.85315 3.9084,-7.15806 11.02255,-11.28603 7.15807,-4.17188 16.11663,-4.17188 14.31614,0 22.87947,8.12419 8.60725,8.08027 8.60725,21.4742 z"
         inkscape:connector-curvature="0" />
      <path
         id="path5804"
         style="font-style:normal;font-variant:normal;font-weight:bold;font-stretch:normal;font-size:89.93695831px;font-family:'Linux Biolinum G';-inkscape-font-specification:'Linux Biolinum G, Bold';font-variant-ligatures:normal;font-variant-caps:normal;font-variant-numeric:normal;font-feature-settings:normal;text-align:end;writing-mode:lr-tb;text-anchor:end;stroke-width:2.24844527"
         d="m 701.43014,987.91864 q -4.78668,-12.3839 -7.94853,-19.71763 h -0.57089 l -8.38767,19.6298 q 3.73273,0.17566 9.39771,0.17566 2.41529,0 7.50938,-0.0878 z m -19.01499,5.00625 q -5.22583,12.82301 -7.11416,19.98111 -1.09786,-0.2635 -4.04013,-0.2635 -3.95231,0 -5.05017,0.2635 l 26.52437,-59.46027 h 8.08028 l 14.09656,34.95597 q 7.46547,18.1806 10.5834,24.5043 -1.53701,-0.2635 -8.21201,-0.2635 -5.75281,0 -7.28982,0.2635 -2.15181,-7.8168 -6.67501,-20.02502 -8.82682,-0.13175 -8.95856,-0.13175 -5.09408,0 -11.94475,0.17566 z"
         inkscape:connector-curvature="0" />
      <path
         id="path5806"
         style="font-style:normal;font-variant:normal;font-weight:bold;font-stretch:normal;font-size:89.93695831px;font-family:'Linux Biolinum G';-inkscape-font-specification:'Linux Biolinum G, Bold';font-variant-ligatures:normal;font-variant-caps:normal;font-variant-numeric:normal;font-feature-settings:normal;text-align:end;writing-mode:lr-tb;text-anchor:end;stroke-width:2.24844527"
         d="m 745.44409,1003.5522 q 0,1.5809 0.65872,2.5031 0.65872,0.8783 2.94227,1.4492 2.28356,0.5709 6.54327,0.5709 3.42533,0 5.79672,-0.2635 2.37138,-0.3074 4.56711,-1.0978 2.23964,-0.8344 3.6449,-2.2836 1.40527,-1.4931 2.45922,-3.8206 1.05395,-2.32743 1.49309,-5.66494 0.48306,-3.3375 0.48306,-7.8607 0,-2.63487 -0.0878,-4.61103 -0.0439,-1.97615 -0.3074,-4.43536 -0.21957,-2.50313 -0.65872,-4.34754 -0.43914,-1.88833 -1.18569,-3.95231 -0.74655,-2.06398 -1.84441,-3.51316 -1.05395,-1.4931 -2.63487,-2.89836 -1.53701,-1.44918 -3.51316,-2.28356 -1.97616,-0.87829 -4.65494,-1.40526 -2.63488,-0.52698 -5.79672,-0.52698 -3.51316,0 -5.70889,1.14178 -2.19573,1.14178 -2.19573,3.38142 z m -6.32369,-48.92078 q 3.42533,0 8.82682,-0.13174 5.40149,-0.13174 8.82682,-0.13174 6.36761,0 12.25216,2.45921 5.92846,2.4153 10.276,6.54326 4.34753,4.08406 6.93849,9.74903 2.63487,5.66497 2.63487,11.81301 0,4.61102 -1.05395,8.51942 -1.01003,3.90839 -2.76661,6.71893 -1.75658,2.8105 -4.2158,5.0502 -2.41529,2.1957 -5.138,3.601 -2.67878,1.4052 -5.7528,2.3274 -3.0301,0.9222 -5.88455,1.3175 -2.81053,0.3513 -5.66497,0.3513 -4.87451,0 -10.31992,-0.088 -5.4454,-0.088 -8.95856,-0.088 l -7.64113,0.2635 -0.0878,-0.2635 q 1.09787,-7.5972 1.09787,-18.00494 v -22.00118 q 0,-9.9686 -1.09787,-18.00496 l 0.17566,-0.26348 q 4.47928,0.26348 7.5533,0.26348 z"
         inkscape:connector-curvature="0" />
      <path
         id="path5808"
         style="font-style:normal;font-variant:normal;font-weight:bold;font-stretch:normal;font-size:89.93695831px;font-family:'Linux Biolinum G';-inkscape-font-specification:'Linux Biolinum G, Bold';font-variant-ligatures:normal;font-variant-caps:normal;font-variant-numeric:normal;font-feature-settings:normal;text-align:end;writing-mode:lr-tb;text-anchor:end;stroke-width:2.24844527"
         d="m 811.45921,1008.8659 q 8.38768,0 8.38768,-9.266 0,-2.63487 -2.23965,-5.18191 -2.19572,-2.50313 -5.62106,-4.25971 -7.15806,-3.68882 -10.23208,-5.84064 -3.73274,-2.67878 -6.01629,-5.57714 -2.81053,-3.60099 -2.81053,-9.70511 0,-4.61103 2.76661,-8.21202 2.76662,-3.6449 7.15807,-5.48932 4.39146,-1.88832 9.52946,-1.88832 3.07401,0 6.0602,0.43915 3.0301,0.39523 5.138,1.01003 2.1079,0.57089 3.77665,1.18569 1.71267,0.61481 2.54704,1.05395 l 0.79046,0.39523 0.21958,0.26349 q -1.01004,3.42533 -1.8005,10.75906 l -2.7227,0.13174 q -1.31744,-2.45921 -3.20576,-4.78668 -1.88833,-2.32747 -4.61103,-4.17188 -2.7227,-1.84441 -5.22583,-1.84441 -3.55707,0 -5.88454,2.59095 -2.28356,2.59096 -2.28356,6.10412 0,2.37139 0.65872,4.17189 0.70263,1.75658 2.15181,3.07401 1.4931,1.27352 2.81053,2.02007 1.31744,0.74655 3.55708,1.8005 2.02007,0.9222 3.29359,1.58092 1.31743,0.65872 3.38142,1.8005 2.06398,1.14177 3.42533,2.15181 1.36135,1.01003 2.94227,2.50313 1.58093,1.44917 2.50313,2.94227 0.96612,1.44918 1.58093,3.38142 0.65871,1.88832 0.65871,3.90839 0,3.42533 -1.537,6.63112 -1.4931,3.1618 -4.2158,5.621 -2.7227,2.4592 -6.80675,3.9084 -4.08405,1.4492 -8.91465,1.4492 -4.87451,0 -9.74903,-1.01 -4.74277,-1.0101 -7.20198,-2.0201 l -2.4153,-1.01 -0.17566,-0.2635 q 1.05395,-3.9962 1.8005,-10.97865 l 2.37138,-0.0878 q 2.59096,3.90835 7.42156,7.33365 4.8306,3.3815 8.73899,3.3815 z"
         inkscape:connector-curvature="0" />
      <path
         id="path5810"
         style="font-style:normal;font-variant:normal;font-weight:bold;font-stretch:normal;font-size:89.93695831px;font-family:'Linux Biolinum G';-inkscape-font-specification:'Linux Biolinum G, Bold';font-variant-ligatures:normal;font-variant-caps:normal;font-variant-numeric:normal;font-feature-settings:normal;text-align:end;writing-mode:lr-tb;text-anchor:end;stroke-width:2.24844527"
         d="m 883.00756,972.63638 q 0,-10.31991 -1.05395,-18.00496 l 0.17566,-0.26348 q 4.30362,0.26348 7.37764,0.26348 l 7.46547,-0.26348 0.0878,0.26348 q -1.09787,7.46547 -1.09787,18.00496 v 22.00118 q 0,9.96864 1.09787,18.00494 l -0.17566,0.2635 q -4.30363,-0.2635 -7.37764,-0.2635 l -7.46547,0.2635 -0.0878,-0.2635 q 1.05395,-7.2898 1.05395,-18.00494 v -9.9686 h -27.31484 v 9.9686 q 0,10.31994 1.05395,18.00494 l -0.17566,0.2635 q -4.30362,-0.2635 -7.37764,-0.2635 l -7.46547,0.2635 -0.0878,-0.2635 q 1.09786,-7.5972 1.09786,-18.00494 v -22.00118 q 0,-9.9686 -1.09786,-18.00496 l 0.17566,-0.26348 q 4.30362,0.26348 7.37764,0.26348 l 7.46547,-0.26348 0.0878,0.26348 q -1.05395,7.15807 -1.05395,18.00496 v 7.37764 h 27.31484 z"
         inkscape:connector-curvature="0" />
      <path
         id="path5812"
         style="font-style:normal;font-variant:normal;font-weight:bold;font-stretch:normal;font-size:89.93695831px;font-family:'Linux Biolinum G';-inkscape-font-specification:'Linux Biolinum G, Bold';font-variant-ligatures:normal;font-variant-caps:normal;font-variant-numeric:normal;font-feature-settings:normal;text-align:end;writing-mode:lr-tb;text-anchor:end;stroke-width:2.24844527"
         d="m 941.28214,987.91864 q -4.78669,-12.3839 -7.94853,-19.71763 h -0.57089 l -8.38768,19.6298 q 3.73274,0.17566 9.39771,0.17566 2.4153,0 7.50939,-0.0878 z m -19.01499,5.00625 q -5.22583,12.82301 -7.11416,19.98111 -1.09786,-0.2635 -4.04013,-0.2635 -3.95231,0 -5.05018,0.2635 l 26.52438,-59.46027 h 8.08027 l 14.09657,34.95597 q 7.46547,18.1806 10.5834,24.5043 -1.53701,-0.2635 -8.21202,-0.2635 -5.7528,0 -7.28981,0.2635 -2.15181,-7.8168 -6.67501,-20.02502 -8.82682,-0.13175 -8.95856,-0.13175 -5.09409,0 -11.94475,0.17566 z"
         inkscape:connector-curvature="0" />
      <path
         id="path5814"
         style="font-style:normal;font-variant:normal;font-weight:bold;font-stretch:normal;font-size:89.93695831px;font-family:'Linux Biolinum G';-inkscape-font-specification:'Linux Biolinum G, Bold';font-variant-ligatures:normal;font-variant-caps:normal;font-variant-numeric:normal;font-feature-settings:normal;text-align:end;writing-mode:lr-tb;text-anchor:end;stroke-width:2.24844527"
         d="m 993.09044,958.4959 q -4.47928,0 -6.23587,1.14178 -1.75658,1.09786 -1.75658,3.24967 v 18.09279 h 4.8306 q 2.19573,0 3.46925,-0.0439 1.31744,-0.0878 2.85444,-0.30741 1.58093,-0.21957 2.4153,-0.70263 0.87829,-0.48306 1.80052,-1.31743 0.9222,-0.83438 1.3174,-2.06399 0.4392,-1.27352 0.7026,-3.0301 0.3074,-1.8005 0.3074,-4.21579 0,-1.97616 -0.1756,-3.51317 -0.1757,-1.53701 -0.6148,-2.63487 -0.3952,-1.14178 -0.8344,-1.93224 -0.3952,-0.79046 -1.18568,-1.27352 -0.79046,-0.52697 -1.40527,-0.83438 -0.6148,-0.3074 -1.71266,-0.43914 -1.05395,-0.13174 -1.8005,-0.13174 -0.70263,-0.0439 -1.97615,-0.0439 z m -7.99245,27.53441 v 8.60725 q 0,11.59344 0.87829,18.00494 l -0.17565,0.2635 q -4.12797,-0.2635 -7.20199,-0.2635 l -7.28981,0.2635 -0.0878,-0.2635 q 1.09786,-7.5972 1.09786,-18.00494 v -22.00118 q 0,-9.9686 -1.09786,-18.00496 l 0.17566,-0.26348 q 4.47928,0.26348 7.5533,0.26348 1.40526,0 8.08027,-0.3074 6.71893,-0.3074 7.77287,-0.3074 5.35757,0 9.30987,0.6148 3.9523,0.57089 6.8067,2.4153 5.8407,3.82057 5.8407,12.16433 0,11.63735 -13.7453,15.15051 2.4153,3.16185 9.749,14.31614 7.3338,11.1104 9.8369,13.9648 l -0.1757,0.2635 q -1.8005,-0.2635 -8.3876,-0.2635 -5.3137,0 -7.0264,0.2635 -1.4931,-4.611 -9.44155,-16.07271 -0.39523,-0.57089 -3.16185,-4.78669 -2.7227,-4.25971 -4.21579,-6.10412 -3.51316,0.0878 -5.09409,0.0878 z"
         inkscape:connector-curvature="0" />
      <path
         id="path5816"
         style="font-style:normal;font-variant:normal;font-weight:bold;font-stretch:normal;font-size:89.93695831px;font-family:'Linux Biolinum G';-inkscape-font-specification:'Linux Biolinum G, Bold';font-variant-ligatures:normal;font-variant-caps:normal;font-variant-numeric:normal;font-feature-settings:normal;text-align:end;writing-mode:lr-tb;text-anchor:end;stroke-width:2.24844527"
         d="m 1045.133,994.63756 q 0,8.95854 0.7027,11.41774 5.3575,0 11.7691,-0.483 6.4554,-0.4831 10.1881,-1.0101 l 3.7767,-0.483 0.1756,0.3952 q -0.1756,1.4053 -0.1756,4.9184 0,0.7027 0.1756,3.2497 l -0.1756,0.2635 q -2.1957,-0.2635 -5.4015,-0.2635 h -27.3588 l -7.6411,0.2635 -0.088,-0.2635 q 1.0978,-7.5972 1.0978,-18.00494 v -22.00118 q 0,-9.9686 -1.0978,-18.00496 l 0.1756,-0.26348 q 4.4793,0.26348 7.5533,0.26348 h 26.4366 q 3.2497,0 5.4015,-0.26348 l 0.1756,0.26348 q -0.1756,2.54705 -0.1756,3.16185 0,2.28355 0.1756,3.68882 l -0.1756,0.35132 q -12.8231,-1.09787 -24.8117,-1.09787 -0.7027,2.45922 -0.7027,11.90084 v 6.54326 q 9.7491,0 20.3764,-0.87829 l 0.3074,0.26349 q -0.3074,1.40527 -0.3074,3.33751 0,2.02006 0.3074,3.38141 l -0.3074,0.30741 q -9.3099,-0.92221 -20.3764,-0.92221 z"
         inkscape:connector-curvature="0" />
      <path
         id="path5818"
         style="font-style:normal;font-variant:normal;font-weight:bold;font-stretch:normal;font-size:89.93695831px;font-family:'Linux Biolinum G';-inkscape-font-specification:'Linux Biolinum G, Bold';font-variant-ligatures:normal;font-variant-caps:normal;font-variant-numeric:normal;font-feature-settings:normal;text-align:end;writing-mode:lr-tb;text-anchor:end;stroke-width:2.24844527"
         d="m 1102.0139,958.4959 q -4.4793,0 -6.2359,1.14178 -1.7565,1.09786 -1.7565,3.24967 v 18.09279 h 4.8306 q 2.1957,0 3.4692,-0.0439 1.3174,-0.0878 2.8544,-0.30741 1.581,-0.21957 2.4153,-0.70263 0.8783,-0.48306 1.8005,-1.31743 0.9222,-0.83438 1.3175,-2.06399 0.4391,-1.27352 0.7026,-3.0301 0.3074,-1.8005 0.3074,-4.21579 0,-1.97616 -0.1756,-3.51317 -0.1757,-1.53701 -0.6149,-2.63487 -0.3952,-1.14178 -0.8343,-1.93224 -0.3953,-0.79046 -1.1857,-1.27352 -0.7905,-0.52697 -1.4053,-0.83438 -0.6148,-0.3074 -1.7127,-0.43914 -1.0539,-0.13174 -1.8004,-0.13174 -0.7027,-0.0439 -1.9762,-0.0439 z m -7.9924,27.53441 v 8.60725 q 0,11.59344 0.8782,18.00494 l -0.1756,0.2635 q -4.128,-0.2635 -7.202,-0.2635 l -7.2898,0.2635 -0.088,-0.2635 q 1.0978,-7.5972 1.0978,-18.00494 v -22.00118 q 0,-9.9686 -1.0978,-18.00496 l 0.1756,-0.26348 q 4.4793,0.26348 7.5533,0.26348 1.4053,0 8.0803,-0.3074 6.7189,-0.3074 7.7729,-0.3074 5.3575,0 9.3098,0.6148 3.9524,0.57089 6.8068,2.4153 5.8406,3.82057 5.8406,12.16433 0,11.63735 -13.7452,15.15051 2.4153,3.16185 9.749,14.31614 7.3337,11.1104 9.8369,13.9648 l -0.1757,0.2635 q -1.8005,-0.2635 -8.3877,-0.2635 -5.3136,0 -7.0263,0.2635 -1.4931,-4.611 -9.4416,-16.07271 -0.3952,-0.57089 -3.1619,-4.78669 -2.7227,-4.25971 -4.2158,-6.10412 -3.5131,0.0878 -5.094,0.0878 z"
         inkscape:connector-curvature="0" />
      <path
         id="path5820"
         style="font-style:normal;font-variant:normal;font-weight:bold;font-stretch:normal;font-size:89.93695831px;font-family:'Linux Biolinum G';-inkscape-font-specification:'Linux Biolinum G, Bold';font-variant-ligatures:normal;font-variant-caps:normal;font-variant-numeric:normal;font-feature-settings:normal;text-align:end;writing-mode:lr-tb;text-anchor:end;stroke-width:2.24844527"
         d="m 1153.8408,1008.8659 q 8.3877,0 8.3877,-9.266 0,-2.63487 -2.2397,-5.18191 -2.1957,-2.50313 -5.621,-4.25971 -7.1581,-3.68882 -10.2321,-5.84064 -3.7328,-2.67878 -6.0163,-5.57714 -2.8105,-3.60099 -2.8105,-9.70511 0,-4.61103 2.7666,-8.21202 2.7666,-3.6449 7.158,-5.48932 4.3915,-1.88832 9.5295,-1.88832 3.074,0 6.0602,0.43915 3.0301,0.39523 5.138,1.01003 2.1079,0.57089 3.7766,1.18569 1.7127,0.61481 2.5471,1.05395 l 0.7905,0.39523 0.2195,0.26349 q -1.01,3.42533 -1.8005,10.75906 l -2.7227,0.13174 q -1.3174,-2.45921 -3.2057,-4.78668 -1.8884,-2.32747 -4.6111,-4.17188 -2.7227,-1.84441 -5.2258,-1.84441 -3.5571,0 -5.8845,2.59095 -2.2836,2.59096 -2.2836,6.10412 0,2.37139 0.6587,4.17189 0.7027,1.75658 2.1518,3.07401 1.4931,1.27352 2.8106,2.02007 1.3174,0.74655 3.557,1.8005 2.0201,0.9222 3.2936,1.58092 1.3175,0.65872 3.3815,1.8005 2.0639,1.14177 3.4253,2.15181 1.3613,1.01003 2.9423,2.50313 1.5809,1.44917 2.5031,2.94227 0.9661,1.44918 1.5809,3.38142 0.6587,1.88832 0.6587,3.90839 0,3.42533 -1.537,6.63112 -1.4931,3.1618 -4.2158,5.621 -2.7227,2.4592 -6.8067,3.9084 -4.0841,1.4492 -8.9147,1.4492 -4.8745,0 -9.749,-1.01 -4.7428,-1.0101 -7.202,-2.0201 l -2.4153,-1.01 -0.1756,-0.2635 q 1.0539,-3.9962 1.8005,-10.97865 l 2.3713,-0.0878 q 2.591,3.90835 7.4216,7.33365 4.8306,3.3815 8.739,3.3815 z"
         inkscape:connector-curvature="0" />
    </g>
  </g>
</svg>
